{
    "asset" : {
        "generator" : "Khronos glTF Blender I/O v1.4.40",
        "version" : "2.0"
    },
    "scene" : 0,
    "scenes" : [
        {
            "name" : "Scene",
            "nodes" : [
                0,
                1,
                2,
                3
            ]
        }
    ],
    "nodes" : [
        {
            "mesh" : 0,
            "name" : "Cylinder"
        },
        {
            "name" : "Camera",
            "rotation" : [
                0,
                0.7071067094802856,
                -0.7071068286895752,
                -3.0908616110991716e-08
            ],
            "translation" : [
                0,
                0.2546572685241699,
                -0.757567822933197
            ]
        },
        {
            "name" : "Area",
            "scale" : [
                6.335152626037598,
                1,
                6.335152626037598
            ],
            "translation" : [
                0,
                1.8400177955627441,
                0
            ]
        },
        {
            "name" : "Area.001",
            "rotation" : [
                1,
                0,
                0,
                -1.6292068494294654e-07
            ],
            "scale" : [
                6.335152626037598,
                1,
                6.335152626037598
            ],
            "translation" : [
                0,
                -1.8400177955627441,
                0
            ]
        }
    ],
    "materials" : [
        {
            "doubleSided" : true,
            "name" : "Material.001",
            "pbrMetallicRoughness" : {}
        }
    ],
    "meshes" : [
        {
            "name" : "Cylinder",
            "primitives" : [
                {
                    "attributes" : {
                        "POSITION" : 0,
                        "NORMAL" : 1,
                        "TEXCOORD_0" : 2
                    },
                    "indices" : 3,
                    "material" : 0
                }
            ]
        }
    ],
    "accessors" : [
        {
            "bufferView" : 0,
            "componentType" : 5126,
            "count" : 61794,
            "max" : [
                0.12094668298959732,
                0.509314775466919,
                0.12094669789075851
            ],
            "min" : [
                -0.12094669789075851,
                0,
                -0.12094669789075851
            ],
            "type" : "VEC3"
        },
        {
            "bufferView" : 1,
            "componentType" : 5126,
            "count" : 61794,
            "type" : "VEC3"
        },
        {
            "bufferView" : 2,
            "componentType" : 5126,
            "count" : 61794,
            "type" : "VEC2"
        },
        {
            "bufferView" : 3,
            "componentType" : 5123,
            "count" : 97506,
            "type" : "SCALAR"
        }
    ],
    "bufferViews" : [
        {
            "buffer" : 0,
            "byteLength" : 741528,
            "byteOffset" : 0
        },
        {
            "buffer" : 0,
            "byteLength" : 741528,
            "byteOffset" : 741528
        },
        {
            "buffer" : 0,
            "byteLength" : 494352,
            "byteOffset" : 1483056
        },
        {
            "buffer" : 0,
            "byteLength" : 195012,
            "byteOffset" : 1977408
        }
    ],
    "buffers" : [
        {
            "byteLength" : 2172420,
            "uri" : "tree2.bin"
        }
    ]
}
