{
    "asset" : {
        "generator" : "Khronos glTF Blender I/O v1.4.40",
        "version" : "2.0"
    },
    "scene" : 0,
    "scenes" : [
        {
            "name" : "Scene",
            "nodes" : [
                0
            ]
        }
    ],
    "nodes" : [
        {
            "mesh" : 0,
            "name" : "Cylinder"
        }
    ],
    "materials" : [
        {
            "doubleSided" : true,
            "name" : "Material.001",
            "pbrMetallicRoughness" : {}
        }
    ],
    "meshes" : [
        {
            "name" : "Cylinder",
            "primitives" : [
                {
                    "attributes" : {
                        "POSITION" : 0,
                        "NORMAL" : 1,
                        "TEXCOORD_0" : 2
                    },
                    "indices" : 3,
                    "material" : 0
                }
            ]
        }
    ],
    "accessors" : [
        {
            "bufferView" : 0,
            "componentType" : 5126,
            "count" : 232,
            "max" : [
                0.12094668298959732,
                0.509314775466919,
                0.12094669789075851
            ],
            "min" : [
                -0.12094669789075851,
                0,
                -0.12094669789075851
            ],
            "type" : "VEC3"
        },
        {
            "bufferView" : 1,
            "componentType" : 5126,
            "count" : 232,
            "type" : "VEC3"
        },
        {
            "bufferView" : 2,
            "componentType" : 5126,
            "count" : 232,
            "type" : "VEC2"
        },
        {
            "bufferView" : 3,
            "componentType" : 5123,
            "count" : 354,
            "type" : "SCALAR"
        }
    ],
    "bufferViews" : [
        {
            "buffer" : 0,
            "byteLength" : 2784,
            "byteOffset" : 0
        },
        {
            "buffer" : 0,
            "byteLength" : 2784,
            "byteOffset" : 2784
        },
        {
            "buffer" : 0,
            "byteLength" : 1856,
            "byteOffset" : 5568
        },
        {
            "buffer" : 0,
            "byteLength" : 708,
            "byteOffset" : 7424
        }
    ],
    "buffers" : [
        {
            "byteLength" : 8132,
            "uri" : "data:application/octet-stream;base64,"
        }
    ]
}
